<?xml version="1.0" encoding="utf-8"?>
<!-- Generator: Adobe Illustrator 25.0.1, SVG Export Plug-In . SVG Version: 6.00 Build 0)  -->
<svg version="1.1" xmlns="http://www.w3.org/2000/svg" xmlns:xlink="http://www.w3.org/1999/xlink" x="0px" y="0px"
	 viewBox="0 0 1600 1600" style="enable-background:new 0 0 1600 1600;" xml:space="preserve">
<style type="text/css">
	.st0{fill:url(#SVGID_1_);}
	.st1{fill:url(#SVGID_2_);}
	.st2{fill:#7E95BE;}
	.st3{fill:#546F9E;}
	.st4{opacity:0.8;fill:#FFFFFF;}
	.st5{fill:#FFFFFF;}
	.st6{font-family:'Montserrat-Bold';}
	.st7{font-size:83.7949px;}
	.st8{font-size:26.2692px;}
	
		.st9{fill:none;stroke:#990000;stroke-width:15.271;stroke-linecap:round;stroke-linejoin:round;stroke-miterlimit:10;stroke-dasharray:1.0908,39.2683;}
	.st10{font-family:'Montserrat-Regular';}
	.st11{font-size:24px;}
	.st12{font-family:'Montserrat-SemiBold';}
	.st13{font-size:36px;}
	.st14{font-size:48px;}
	.st15{font-size:72px;}
</style>
<g id="Layer_1_copy">
	<linearGradient id="SVGID_1_" gradientUnits="userSpaceOnUse" x1="800" y1="1600" x2="800" y2="-9.094947e-13">
		<stop  offset="0.5" style="stop-color:#29ABE2"/>
		<stop  offset="1" style="stop-color:#0553B7"/>
	</linearGradient>
	<rect class="st0" width="1600" height="1600"/>
</g>
<g id="Layer_7">
	<linearGradient id="SVGID_2_" gradientUnits="userSpaceOnUse" x1="800" y1="1600" x2="800" y2="349.0251">
		<stop  offset="0" style="stop-color:#7E95BE"/>
		<stop  offset="1" style="stop-color:#FFFFFF"/>
	</linearGradient>
	<polygon class="st1" points="0,576.6 119.9,504.3 144,463.3 177.6,441.3 203.8,398.3 251,359.5 307.6,349 413.6,391 499.6,430.8 
		537.3,421.4 755.5,582.9 758.6,603.9 782.8,608.1 789.1,619.6 814.2,625.9 934.8,747.6 947.4,781.2 988.3,802.1 1025.1,843 
		1080.6,796.9 1107.9,793.7 1146.7,759.1 1204.4,725.6 1217,706.7 1246.4,699.3 1281,673.1 1375.4,642.7 1400.5,642.7 1408.9,632.2 
		1434.1,640.6 1475,635.4 1500.2,644.8 1517,640.6 1548.4,655.3 1566.3,656.3 1583,666.8 1600,665.8 1600,1600 0,1600 	"/>
	<polygon class="st2" points="738.2,1600 757.8,1449.9 679.5,1467.8 703.4,1405.3 529.6,1408.1 514.2,1311.5 642.5,1295.9 
		681.6,1309.3 659.9,1271.3 620.7,1282.5 636,1260.1 609.9,1262.4 659.9,1139.6 709.9,1074.8 753.4,1083.8 759.9,1041.4 
		851.3,958.8 1005.7,871.7 1092.7,795.8 1129.7,793.5 1158,762.3 1181.9,766.8 1192.8,751.1 1208,766.8 1223.2,717.6 1229.7,753.4 
		1240.6,704.2 1275.4,686.4 1312.4,731 1312.4,675.2 1347.2,713.2 1349.4,679.7 1371.1,702 1366.8,670.8 1403.8,695.3 1386.4,655.1 
		1403.8,644 1438.6,690.8 1421.2,644 1469,666.3 1482.1,686.4 1405.9,766.8 1423.3,795.8 1416.8,858.3 1362.4,809.2 1429.9,911.9 
		1477.7,954.3 1477.7,1001.2 1412.5,972.1 1301.5,880.6 1286.3,840.4 1290.6,896.2 1397.2,987.8 1434.2,1007.9 1451.6,1081.5 
		1466.8,1148.5 1429.9,1139.6 1421.2,1166.4 1379.8,1195.4 1249.3,1211 1199.3,1135.1 1212.3,1242.3 1277.6,1278 1329.8,1231.1 
		1377.7,1231.1 1362.8,1214.8 1381.6,1206.6 1404.8,1227 1394.3,1204.3 1422.6,1186.8 1454.5,1209.2 1443.6,1224.4 1470.1,1231.9 
		1475.9,1249 1489.3,1343.9 1556,1416.8 1600,1458.8 1600,1600 	"/>
	<polygon class="st2" points="530.7,1249 503.9,1271.6 439.4,1264.9 376.6,1291.7 323.9,1225.5 305.4,1228.1 303.8,1211.3 
		282.8,1213 369.1,1159.4 391.7,1232.2 397.5,1157.7 452.8,1172.8 	"/>
	<polygon class="st2" points="-1,1395.5 0.7,1598.9 83.6,1598.1 110.4,1578 108.7,1598.9 148.1,1599.8 200,1562.9 229.3,1480.1 
		259.4,1485.1 184.1,1439 216.7,1405.5 173.2,1393.8 146.4,1341.9 60.1,1362 	"/>
	<polygon class="st2" points="216.7,1591.4 287,1501 437.7,1484.2 421,1514.4 354,1552.9 326.4,1529.4 283.7,1577.2 	"/>
	<polygon class="st2" points="621.1,1423.1 556.6,1455.8 504.7,1427.3 473.7,1444.1 455.3,1437.4 439.4,1451.6 404.2,1464.1 
		383.3,1449.9 351.5,1456.6 282,1465 319.7,1438.2 357.4,1429.8 371.6,1432.3 409.3,1423.1 456.1,1428.1 500.5,1415.6 563.3,1431.5 
			"/>
	<polygon class="st3" points="164.8,461.9 243,414 258.6,387.9 276.3,414 309.6,447.3 388.8,458.7 436.7,484.8 450.2,477.5 
		475.2,494.2 512.7,494.2 532.5,452.5 556.5,444.2 578.3,468.1 569,507.7 609.6,531.7 560.6,552.5 499.2,519.2 452.3,522.3 
		396.1,517.1 394,492.1 316.9,482.7 337.7,522.3 289.8,522.3 225.3,513.9 197.1,496.2 237.8,482.7 203.4,479.6 	"/>
	<polygon class="st3" points="176.3,524.4 332.5,618.1 373.2,610.8 401.3,644.1 447.1,646.2 426.3,621.2 475.2,613.9 486.7,642.1 
		566.9,637.9 497.1,605.6 626.2,595.2 596,571.2 656.4,533.7 702.8,543.4 755.5,582.9 811.6,619.1 931.1,730.2 943.9,768.1 
		800.2,737.9 736.6,787.9 681.4,882.6 580.4,917 557.5,994.1 530.4,1026.4 422.1,1031.6 440.8,1076.4 416.9,1095.1 381.5,1010.7 
		371.1,1032.6 342.9,960.8 306.5,917 258.6,948.3 211.7,948.3 227.3,923.3 158.6,934.7 168,906.6 139.9,925.3 116.9,902.4 
		29.5,896.2 77.4,836.8 44,820.2 10.7,746.2 27.4,675.4 89.9,642.1 125.3,560.8 159.6,565 	"/>
	<polygon class="st3" points="824.1,970.1 978.3,869.1 1025.1,843 993.9,803.5 943.9,799.3 930.4,851.4 897,898.3 870,892 
		757.5,894.1 712.7,918.1 790.8,917 700.2,941 799.1,937.8 707.5,978.5 808.5,957.6 791.8,975.3 751.2,978.5 754.3,995.1 	"/>
	<polygon class="st3" points="773.1,1041 801.5,1005.5 869.2,975.3 869.2,1001.4 927.8,964.9 950.1,1004.5 915.7,1046.2 
		1032,1022.2 1069.4,1033.7 1078.5,999.3 1091.6,1032.6 1104.8,988.9 1154.3,928.5 1163.4,981.6 1187.7,928.5 1195.8,1031.6 
		1226.1,986.8 1239.3,1029.5 1254.4,977.4 1250.4,1089.9 1271.6,1047.2 1281.7,1094.1 1294.9,1051.4 1296.9,1092 1328.2,949.3 
		1318.1,1109.7 1333.3,1050.3 1358.6,1058.7 1353.5,1075.3 1375.8,1075.3 1385.9,1054.5 1415.2,1044.1 1404.1,1074.3 1381.8,1086.8 
		1398,1093 1351.5,1188.8 1304,1179.5 1231.2,1234.7 1225.1,1267 1279.7,1379.4 1385.9,1391.9 1339.4,1472.1 1391.9,1485.7 
		1394,1422.1 1454.6,1445.1 1453.6,1516.9 1490,1543 1502.2,1599.2 1313.1,1582.5 1297.9,1499.2 1230.2,1600.2 866.2,1600.2 
		826.7,1527.3 796.4,1546.1 761,1455.5 806.5,1438.8 757,1390.9 908.4,1421.5 816.6,1174.3 836.8,1139.9 813.6,1112.8 786.3,1127.4 
		695.3,1112.8 740.8,1085.7 	"/>
	<polygon class="st3" points="707.5,1080.5 681.4,1056.6 698.1,1026.4 675.2,985.8 657.5,1036.8 627.3,1052.4 540.8,1048.2 
		483.6,1082.6 487.7,1107.6 555.4,1071.2 605.4,1079.5 582.5,1096.2 606.5,1107.6 532.5,1102.4 498.1,1127.4 584.6,1120.1 
		602.3,1168 625.2,1167 650.2,1109.7 	"/>
</g>
<g id="Layer_1">
	<rect x="864.1" class="st4" width="669.8" height="1600.1"/>
	<text transform="matrix(1 0 0 1 59.9077 113.3687)" class="st5 st6 st7">MOUNT EVEREST</text>
	
		<image style="overflow:visible;" width="2400" height="1748" xlink:href="everest.jpg"  transform="matrix(0.24 0 0 0.24 911.0261 44.957)">
	</image>
	<text transform="matrix(1 0 0 1 54.646 154.6274)" class="st5 st6 st8">“It is not the mountain that we conquer, but ourselves.”</text>
	
		<image style="overflow:visible;" width="1374" height="1086" xlink:href="newspaper.jpeg"  transform="matrix(0.1446 -3.519936e-02 3.519936e-02 0.1446 248.9131 519.395)">
	</image>
	<path class="st9" d="M294.3,372.1c0,0-305.9,250-138.4,323.7s471.1,62.5,321.5,176.4s52.7,260.5,87.1,288
		c192.1,154,124.5,320.4-18,411.7"/>
	
		<image style="overflow:visible;" width="990" height="1250" xlink:href="hikers.jpg"  transform="matrix(0.3482 4.345544e-02 -4.345544e-02 0.3482 29.0624 775.7164)">
	</image>
	<text transform="matrix(1 0 0 1 963.9058 1556.4475)" class="st3 st10 st11">nelilly.github.io/inaccessible-website/remote</text>
	<text transform="matrix(1 0 0 1 1200.0852 1521.5538)" class="st3 st12 st11">An Inaccessible Website</text>
	
		<image style="overflow:visible;" width="691" height="413" xlink:href="hillary_and_tenzing.jpg"  transform="matrix(0.2381 3.020565e-02 -3.020565e-02 0.2381 247.8715 217.1256)">
	</image>
	<text transform="matrix(1 0 0 1 1084.3315 520.8339)"><tspan x="0" y="0" class="st3 st6 st13">Coordinates</tspan><tspan x="-145.9" y="57.6" class="st3 st6 st14">27°59′17″N 86°55′31″E</tspan></text>
	<text transform="matrix(1 0 0 1 512.4659 274.4882)"><tspan x="0" y="0" class="st5 st6 st13">Elevation</tspan><tspan x="-14.1" y="57.6" class="st5 st6 st14">8,848 m</tspan></text>
	<text transform="matrix(1 0 0 1 996.0781 877.9851)"><tspan x="0" y="0" class="st3 st6 st13">Lowest temperatures</tspan><tspan x="117.8" y="86.4" class="st3 st6 st15">-80F</tspan></text>
	<text transform="matrix(1 0 0 1 1075.9795 1128.683)"><tspan x="0" y="0" class="st3 st6 st13">Wind speeds</tspan><tspan x="-66.3" y="86.4" class="st3 st6 st15">200+ mph</tspan></text>
	<text transform="matrix(1 0 0 1 32.8971 1341.6875)"><tspan x="0" y="0" class="st5 st6 st13">Trash left behind by expeditions</tspan><tspan x="197.2" y="57.6" class="st5 st6 st14">~30 tons</tspan></text>
	<text transform="matrix(1 0 0 1 454.3282 686.4856)"><tspan x="0" y="0" class="st5 st6 st13">First summit by</tspan><tspan x="-65.8" y="43.2" class="st5 st6 st13">Edmund Hillary in 1953</tspan></text>
</g>
</svg>
